<svg xmlns="http://www.w3.org/2000/svg" viewBox="450 50 300 300" enable-background="new 450 50 300 300"><g transform="translate(400)"><path fill="#9adaf6" d="m200 350c-82.7 0-150-67.3-150-150s67.3-150 150-150 150 67.3 150 150-67.3 150-150 150m0-260c-60.7 0-110 49.3-110 110 0 60.7 49.3 110 110 110s110-49.3 110-110c0-60.7-49.3-110-110-110"/><path fill="#1c9fe7" d="m200 320c-66.2 0-120-53.8-120-120s53.8-120 120-120 120 53.8 120 120-53.8 120-120 120m0-215c-52.4 0-95 42.6-95 95s42.6 95 95 95 95-42.6 95-95-42.6-95-95-95"/></g></svg>